<mxfile host="app.diagrams.net" modified="2021-11-03T15:39:11.357Z" agent="5.0 (X11)" etag="4ftrchU6JomfPouOIAyl" version="15.6.8" type="github">
  <diagram name="Page-1" id="c4acf3e9-155e-7222-9cf6-157b1a14988f">
    <mxGraphModel dx="1125" dy="683" grid="1" gridSize="10" guides="1" tooltips="1" connect="1" arrows="1" fold="1" page="1" pageScale="1" pageWidth="850" pageHeight="1100" background="none" math="0" shadow="0">
      <root>
        <mxCell id="0" />
        <mxCell id="1" parent="0" />
        <mxCell id="7is6OC7gLs7AHatBCgI8-1" value="" style="whiteSpace=wrap;html=1;aspect=fixed;" vertex="1" parent="1">
          <mxGeometry x="360" y="310" width="160" height="160" as="geometry" />
        </mxCell>
        <mxCell id="7is6OC7gLs7AHatBCgI8-22" style="edgeStyle=orthogonalEdgeStyle;rounded=0;orthogonalLoop=1;jettySize=auto;html=1;" edge="1" parent="1" source="7is6OC7gLs7AHatBCgI8-2" target="7is6OC7gLs7AHatBCgI8-21">
          <mxGeometry relative="1" as="geometry" />
        </mxCell>
        <mxCell id="7is6OC7gLs7AHatBCgI8-2" value="&lt;h2&gt;computer&lt;br&gt;&lt;/h2&gt;" style="rounded=0;whiteSpace=wrap;html=1;align=center;" vertex="1" parent="1">
          <mxGeometry x="360" y="310" width="160" height="30" as="geometry" />
        </mxCell>
        <mxCell id="7is6OC7gLs7AHatBCgI8-4" value="&lt;div align=&quot;left&quot;&gt;-usineNum&lt;/div&gt;&lt;div align=&quot;left&quot;&gt;-year : int&lt;/div&gt;&lt;div align=&quot;left&quot;&gt;-licenseWinNumber : string&lt;br&gt;&lt;/div&gt;" style="rounded=0;whiteSpace=wrap;html=1;align=left;" vertex="1" parent="1">
          <mxGeometry x="360" y="340" width="160" height="40" as="geometry" />
        </mxCell>
        <mxCell id="7is6OC7gLs7AHatBCgI8-9" value="&lt;div&gt;+ Start()&lt;/div&gt;&lt;div&gt;+Stop()&lt;/div&gt;&lt;div&gt;+Standby()&lt;/div&gt;&lt;div&gt;+Restart()&lt;br&gt;&lt;/div&gt;" style="rounded=0;whiteSpace=wrap;html=1;align=left;" vertex="1" parent="1">
          <mxGeometry x="360" y="380" width="160" height="90" as="geometry" />
        </mxCell>
        <mxCell id="7is6OC7gLs7AHatBCgI8-26" style="edgeStyle=orthogonalEdgeStyle;rounded=0;orthogonalLoop=1;jettySize=auto;html=1;exitX=0.5;exitY=1;exitDx=0;exitDy=0;" edge="1" parent="1" source="7is6OC7gLs7AHatBCgI8-11">
          <mxGeometry relative="1" as="geometry">
            <mxPoint x="599.8571428571429" y="660" as="targetPoint" />
          </mxGeometry>
        </mxCell>
        <mxCell id="7is6OC7gLs7AHatBCgI8-11" value="-pad()" style="rounded=0;whiteSpace=wrap;html=1;align=left;" vertex="1" parent="1">
          <mxGeometry x="540" y="550" width="120" height="30" as="geometry" />
        </mxCell>
        <mxCell id="7is6OC7gLs7AHatBCgI8-24" style="edgeStyle=orthogonalEdgeStyle;rounded=0;orthogonalLoop=1;jettySize=auto;html=1;entryX=0.75;entryY=1;entryDx=0;entryDy=0;" edge="1" parent="1" source="7is6OC7gLs7AHatBCgI8-12" target="7is6OC7gLs7AHatBCgI8-9">
          <mxGeometry relative="1" as="geometry" />
        </mxCell>
        <mxCell id="7is6OC7gLs7AHatBCgI8-27" style="edgeStyle=orthogonalEdgeStyle;rounded=0;orthogonalLoop=1;jettySize=auto;html=1;exitX=1;exitY=1;exitDx=0;exitDy=0;" edge="1" parent="1" source="7is6OC7gLs7AHatBCgI8-12">
          <mxGeometry relative="1" as="geometry">
            <mxPoint x="730" y="535" as="targetPoint" />
          </mxGeometry>
        </mxCell>
        <mxCell id="7is6OC7gLs7AHatBCgI8-12" value="&lt;h3&gt;Laptop&lt;/h3&gt;" style="rounded=0;whiteSpace=wrap;html=1;align=center;" vertex="1" parent="1">
          <mxGeometry x="540" y="520" width="120" height="30" as="geometry" />
        </mxCell>
        <mxCell id="7is6OC7gLs7AHatBCgI8-20" value="&lt;div align=&quot;left&quot;&gt;- title: String&lt;br&gt;&lt;/div&gt;" style="rounded=0;whiteSpace=wrap;html=1;align=left;" vertex="1" parent="1">
          <mxGeometry x="375" y="150" width="130" height="60" as="geometry" />
        </mxCell>
        <mxCell id="7is6OC7gLs7AHatBCgI8-21" value="&lt;h3&gt;Computer model&lt;/h3&gt;" style="rounded=0;whiteSpace=wrap;html=1;align=center;" vertex="1" parent="1">
          <mxGeometry x="375" y="150" width="130" height="20" as="geometry" />
        </mxCell>
        <mxCell id="7is6OC7gLs7AHatBCgI8-23" value="" style="whiteSpace=wrap;html=1;aspect=fixed;align=left;" vertex="1" parent="1">
          <mxGeometry x="560" y="650" width="100" height="100" as="geometry" />
        </mxCell>
        <mxCell id="7is6OC7gLs7AHatBCgI8-28" value="&lt;h3 align=&quot;center&quot;&gt;CG&lt;/h3&gt;" style="rounded=0;whiteSpace=wrap;html=1;align=center;" vertex="1" parent="1">
          <mxGeometry x="560" y="650" width="100" height="20" as="geometry" />
        </mxCell>
        <mxCell id="7is6OC7gLs7AHatBCgI8-29" value="&lt;div align=&quot;left&quot;&gt;-NumberOfVent&lt;/div&gt;&lt;div align=&quot;left&quot;&gt;-NumberOfSortie&lt;/div&gt;&lt;div align=&quot;left&quot;&gt;-NumberOfVram&lt;br&gt;&lt;/div&gt;&lt;div align=&quot;left&quot;&gt;&lt;br&gt;&lt;/div&gt;" style="rounded=0;whiteSpace=wrap;html=1;align=left;" vertex="1" parent="1">
          <mxGeometry x="560" y="690" width="100" height="60" as="geometry" />
        </mxCell>
        <mxCell id="7is6OC7gLs7AHatBCgI8-30" value="&lt;div&gt;-UsbPorts : int&lt;/div&gt;&lt;div&gt;-PciPorts: int&lt;/div&gt;&lt;div&gt;-RamPorts : int&lt;br&gt;&lt;/div&gt;" style="rounded=0;whiteSpace=wrap;html=1;align=left;" vertex="1" parent="1">
          <mxGeometry x="720" y="520" width="120" height="50" as="geometry" />
        </mxCell>
        <mxCell id="7is6OC7gLs7AHatBCgI8-31" value="&lt;h3 align=&quot;center&quot;&gt;&lt;span style=&quot;white-space: pre&quot;&gt;CM&lt;/span&gt;&lt;/h3&gt;" style="rounded=0;whiteSpace=wrap;html=1;align=center;" vertex="1" parent="1">
          <mxGeometry x="720" y="505" width="120" height="15" as="geometry" />
        </mxCell>
        <mxCell id="7is6OC7gLs7AHatBCgI8-32" value="-Type : String" style="rounded=0;whiteSpace=wrap;html=1;align=center;" vertex="1" parent="1">
          <mxGeometry x="560" y="670" width="100" height="20" as="geometry" />
        </mxCell>
      </root>
    </mxGraphModel>
  </diagram>
</mxfile>
